<svg xmlns="http://www.w3.org/2000/svg" version="1.1" xmlns:xlink="http://www.w3.org/1999/xlink" xmlns:svgjs="http://svgjs.dev/svgjs" width="1440" height="560" preserveAspectRatio="none" viewBox="0 0 1440 560"><g mask="url(&quot;#SvgjsMask1117&quot;)" fill="none"><rect width="1440" height="560" x="0" y="0" fill="rgba(14, 14, 71, 1)"></rect><g transform="translate(-14.4, -22.4)" stroke-linecap="round"><path d="M450 255.62 L450 304.38" stroke-width="15" stroke="rgba(121, 58, 195, 1)"></path><path d="M470 241.57 L470 318.43" stroke-width="15" stroke="rgba(251, 239, 241, 1)"></path><path d="M490 242.14 L490 317.86" stroke-width="15" stroke="rgba(251, 239, 241, 1)"></path><path d="M510 237.44 L510 322.56" stroke-width="15" stroke="rgba(121, 58, 195, 1)"></path><path d="M530 257.43 L530 302.57" stroke-width="15" stroke="rgba(251, 239, 241, 1)"></path><path d="M550 199.04 L550 360.96" stroke-width="15" stroke="rgba(121, 58, 195, 1)"></path><path d="M570 246.52 L570 313.48" stroke-width="15" stroke="rgba(251, 239, 241, 1)"></path><path d="M590 209.95 L590 350.05" stroke-width="15" stroke="rgba(251, 239, 241, 1)"></path><path d="M610 192.9 L610 367.1" stroke-width="15" stroke="rgba(121, 58, 195, 1)"></path><path d="M630 194.26 L630 365.74" stroke-width="15" stroke="rgba(251, 239, 241, 1)"></path><path d="M650 263.54 L650 296.46" stroke-width="15" stroke="rgba(251, 239, 241, 1)"></path><path d="M670 206.88 L670 353.13" stroke-width="15" stroke="rgba(251, 239, 241, 1)"></path><path d="M690 194.18 L690 365.82" stroke-width="15" stroke="rgba(121, 58, 195, 1)"></path><path d="M710 254.93 L710 305.07" stroke-width="15" stroke="rgba(251, 239, 241, 1)"></path><path d="M730 236.44 L730 323.56" stroke-width="15" stroke="rgba(251, 239, 241, 1)"></path><path d="M750 218.25 L750 341.75" stroke-width="15" stroke="rgba(121, 58, 195, 1)"></path><path d="M770 256.48 L770 303.52" stroke-width="15" stroke="rgba(121, 58, 195, 1)"></path><path d="M790 247.85 L790 312.14" stroke-width="15" stroke="rgba(121, 58, 195, 1)"></path><path d="M810 187.57 L810 372.43" stroke-width="15" stroke="rgba(121, 58, 195, 1)"></path><path d="M830 239.89 L830 320.11" stroke-width="15" stroke="rgba(121, 58, 195, 1)"></path><path d="M850 265.94 L850 294.06" stroke-width="15" stroke="rgba(121, 58, 195, 1)"></path><path d="M870 204.47 L870 355.53" stroke-width="15" stroke="rgba(121, 58, 195, 1)"></path><path d="M890 246.38 L890 313.62" stroke-width="15" stroke="rgba(251, 239, 241, 1)"></path><path d="M910 193.56 L910 366.44" stroke-width="15" stroke="rgba(251, 239, 241, 1)"></path><path d="M930 234.99 L930 325.01" stroke-width="15" stroke="rgba(121, 58, 195, 1)"></path><path d="M950 187.92 L950 372.08" stroke-width="15" stroke="rgba(251, 239, 241, 1)"></path><path d="M970 254.43 L970 305.57" stroke-width="15" stroke="rgba(121, 58, 195, 1)"></path><path d="M990 204.34 L990 355.66" stroke-width="15" stroke="rgba(121, 58, 195, 1)"></path></g></g><defs><mask id="SvgjsMask1117"><rect width="1440" height="560" fill="#ffffff"></rect></mask></defs></svg>